<?xml version="1.0" encoding="utf-8"?>
<svg viewBox="0 0 500 500" xmlns="http://www.w3.org/2000/svg">
  <defs>
    <linearGradient id="paint0_linear_44_1209" x1="103.094" y1="84.1312" x2="161.407" y2="84.1312" gradientUnits="userSpaceOnUse">
      <stop stop-color="#E57506"/>
      <stop offset="1" stop-color="#F0B921"/>
    </linearGradient>
    <radialGradient gradientUnits="userSpaceOnUse" cx="40.043" cy="29.425" r="23.337" id="gradient-0">
      <stop offset="0" style="stop-color: rgba(33, 240, 212, 1)"/>
      <stop offset="1" style="stop-color: rgba(11, 160, 140, 1)"/>
    </radialGradient>
    <radialGradient gradientUnits="userSpaceOnUse" cx="37.244" cy="32.847" r="25.187" id="gradient-1">
      <stop offset="0" style="stop-color: rgba(33, 240, 212, 1)"/>
      <stop offset="1" style="stop-color: rgba(11, 160, 140, 1)"/>
    </radialGradient>
  </defs>
  <mask id="mask0_44_1209" style="mask-type:alpha" maskUnits="userSpaceOnUse" x="0" y="29" width="82" height="38">
    <rect x="80.7012" y="66.042" width="80.7059" height="36.1785" transform="rotate(-179.386 80.7012 66.042)" fill="url(#paint0_linear_44_1209)"/>
  </mask>
  <g mask="url(#mask0_44_1209)" transform="matrix(1, 0, 0, 1, 77.494423, 86.246246)">
    <circle cx="40.0429" cy="29.4254" r="23.337" transform="rotate(-179.386 40.0429 29.4254)" style="stroke-opacity: 0; stroke-width: 0px; stroke-miterlimit: 1; paint-order: stroke; stroke: rgb(125, 163, 0); fill: url(#gradient-0);"/>
    <ellipse style="paint-order: stroke; stroke: rgb(125, 163, 0); fill: url(#gradient-1);" cx="37.244" cy="32.847" rx="25.187" ry="20.211"/>
  </g>
  <path d="M 101.286 101.75 C 101.286 100.742 101.374 99.718 101.55 98.678 C 101.742 97.638 102.07 96.694 102.534 95.846 C 103.014 94.998 103.662 94.31 104.478 93.782 C 105.294 93.238 106.334 92.966 107.598 92.966 C 108.862 92.966 109.902 93.238 110.718 93.782 C 111.534 94.31 112.174 94.998 112.638 95.846 C 113.118 96.694 113.446 97.638 113.622 98.678 C 113.814 99.718 113.91 100.742 113.91 101.75 C 113.91 102.758 113.814 103.782 113.622 104.822 C 113.446 105.862 113.118 106.806 112.638 107.654 C 112.174 108.502 111.534 109.198 110.718 109.742 C 109.902 110.27 108.862 110.534 107.598 110.534 C 106.334 110.534 105.294 110.27 104.478 109.742 C 103.662 109.198 103.014 108.502 102.534 107.654 C 102.07 106.806 101.742 105.862 101.55 104.822 C 101.374 103.782 101.286 102.758 101.286 101.75 Z M 104.886 101.75 C 104.886 102.198 104.902 102.734 104.934 103.358 C 104.982 103.982 105.094 104.582 105.27 105.158 C 105.446 105.734 105.71 106.222 106.062 106.622 C 106.43 107.022 106.942 107.222 107.598 107.222 C 108.238 107.222 108.742 107.022 109.11 106.622 C 109.478 106.222 109.75 105.734 109.926 105.158 C 110.102 104.582 110.206 103.982 110.238 103.358 C 110.286 102.734 110.31 102.198 110.31 101.75 C 110.31 101.302 110.286 100.766 110.238 100.142 C 110.206 99.518 110.102 98.918 109.926 98.342 C 109.75 97.766 109.478 97.278 109.11 96.878 C 108.742 96.478 108.238 96.278 107.598 96.278 C 106.942 96.278 106.43 96.478 106.062 96.878 C 105.71 97.278 105.446 97.766 105.27 98.342 C 105.094 98.918 104.982 99.518 104.934 100.142 C 104.902 100.766 104.886 101.302 104.886 101.75 Z M 121.61 97.286 L 118.202 100.286 L 116.162 97.934 L 121.706 93.254 L 125.066 93.254 L 125.066 110.246 L 121.61 110.246 L 121.61 97.286 Z" fill="#514F4F" style="stroke: rgba(187, 218, 85, 0.53);"/>
</svg>