<?xml version="1.0" encoding="utf-8"?>
<svg viewBox="0 0 500 500" xmlns="http://www.w3.org/2000/svg">
  <defs>
    <linearGradient id="gradient-5" x1="103.094" y1="84.1312" x2="161.407" y2="84.1312" gradientUnits="userSpaceOnUse">
      <stop stop-color="#E57506"/>
      <stop offset="1" stop-color="#F0B921"/>
    </linearGradient>
    <radialGradient gradientUnits="userSpaceOnUse" cx="40.043" cy="29.425" r="23.337" id="gradient-6" gradientTransform="matrix(1, 0, 0, 1, 0, 0)">
      <stop offset="0" style="stop-color: rgba(33, 240, 212, 1)"/>
      <stop offset="1" style="stop-color: rgba(11, 160, 140, 1)"/>
    </radialGradient>
    <radialGradient gradientUnits="userSpaceOnUse" cx="37.244" cy="32.847" r="25.187" id="gradient-7" gradientTransform="matrix(1, 0, 0, 1, 1.666667, 0.333333)">
      <stop offset="0" style="stop-color: rgba(33, 240, 212, 1)"/>
      <stop offset="1" style="stop-color: rgba(11, 160, 140, 1)"/>
    </radialGradient>
  </defs>
  <mask id="mask-2" style="mask-type:alpha" maskUnits="userSpaceOnUse" x="0" y="29" width="82" height="38">
    <rect x="80.7012" y="66.042" width="80.7059" height="36.1785" transform="rotate(-179.386 80.7012 66.042)" fill="url(#gradient-5)"/>
  </mask>
  <g mask="url(#mask-2)" transform="matrix(1, 0, 0, 1, 376.751648, 279.496429)">
    <circle cx="40.043" cy="29.425" r="23.337" transform="matrix(-0.999943, -0.010716, 0.010716, -0.999943, 79.601511, 59.528215)" style="stroke-opacity: 0; stroke-width: 0px; stroke-miterlimit: 1; paint-order: stroke; stroke: rgb(125, 163, 0); fill: url(#gradient-6);"/>
    <ellipse style="paint-order: stroke; stroke: rgb(125, 163, 0); fill: url(#gradient-7);" cx="38.911" cy="33.18" rx="25.187" ry="20.211"/>
  </g>
  <path d="M 403.103 291.165 C 403.103 290.157 403.191 289.133 403.367 288.093 C 403.559 287.053 403.887 286.109 404.351 285.261 C 404.831 284.413 405.479 283.725 406.295 283.197 C 407.111 282.653 408.151 282.381 409.415 282.381 C 410.679 282.381 411.719 282.653 412.535 283.197 C 413.351 283.725 413.991 284.413 414.455 285.261 C 414.935 286.109 415.263 287.053 415.439 288.093 C 415.631 289.133 415.727 290.157 415.727 291.165 C 415.727 292.173 415.631 293.197 415.439 294.237 C 415.263 295.277 414.935 296.221 414.455 297.069 C 413.991 297.917 413.351 298.613 412.535 299.157 C 411.719 299.685 410.679 299.949 409.415 299.949 C 408.151 299.949 407.111 299.685 406.295 299.157 C 405.479 298.613 404.831 297.917 404.351 297.069 C 403.887 296.221 403.559 295.277 403.367 294.237 C 403.191 293.197 403.103 292.173 403.103 291.165 Z M 406.703 291.165 C 406.703 291.613 406.719 292.149 406.751 292.773 C 406.799 293.397 406.911 293.997 407.087 294.573 C 407.263 295.149 407.527 295.637 407.879 296.037 C 408.247 296.437 408.759 296.637 409.415 296.637 C 410.055 296.637 410.559 296.437 410.927 296.037 C 411.295 295.637 411.567 295.149 411.743 294.573 C 411.919 293.997 412.023 293.397 412.055 292.773 C 412.103 292.149 412.127 291.613 412.127 291.165 C 412.127 290.717 412.103 290.181 412.055 289.557 C 412.023 288.933 411.919 288.333 411.743 287.757 C 411.567 287.181 411.295 286.693 410.927 286.293 C 410.559 285.893 410.055 285.693 409.415 285.693 C 408.759 285.693 408.247 285.893 407.879 286.293 C 407.527 286.693 407.263 287.181 407.087 287.757 C 406.911 288.333 406.799 288.933 406.751 289.557 C 406.719 290.181 406.703 290.717 406.703 291.165 Z M 423.427 286.701 L 420.019 289.701 L 417.979 287.349 L 423.523 282.669 L 426.883 282.669 L 426.883 299.661 L 423.427 299.661 L 423.427 286.701 Z" fill="#514F4F"/>
</svg>